<svg id="Capa_1" enable-background="new 0 0 512 512" height="512" viewBox="0 0 512 512" width="512" xmlns="http://www.w3.org/2000/svg"><g><circle cx="256" cy="256" fill="#6e74a2" r="256"/><path d="m103.619 378 133.292 133.292c6.303.465 12.668.708 19.089.708 141.385 0 256-114.615 256-256 0-8.66-.436-17.218-1.276-25.657l-102.343-102.343z" fill="#515888"/><g><path d="m408.381 288.714v89.286h-304.762v-89.286l17.857-17.857h269.048z" fill="#dc455b"/><path d="m408.381 288.714v89.286h-152.381v-107.143h134.524z" fill="#952a3a"/><path d="m121.476 270.857h269.048v89.286h-269.048z" fill="#e8f1fd"/><path d="m256 270.857h134.524v89.286h-134.524z" fill="#cfdbfd"/><g fill="#515888"><path d="m247.071 279.786h17.857v62.5h-17.857z"/><path d="m211.357 279.786h17.857v62.5h-17.857z"/><path d="m175.643 279.786h17.857v62.5h-17.857z"/><path d="m139.929 279.786h17.857v62.5h-17.857z"/></g><path d="m282.786 279.786h17.857v62.5h-17.857z" fill="#394071"/><path d="m318.5 279.786h17.857v62.5h-17.857z" fill="#394071"/><path d="m354.214 279.786h17.857v62.5h-17.857z" fill="#394071"/><path d="m256 279.786h8.929v62.5h-8.929z" fill="#394071"/><path d="m103.619 128h304.762v160.714h-304.762z" fill="#e27f7f"/><path d="m256 128h152.381v160.714h-152.381z" fill="#dc455b"/><path d="m148.857 163.714h17.857v89.286h-17.857z" fill="#e8f1fd"/><path d="m139.929 217.286h35.714v17.857h-35.714z" fill="#515888"/><path d="m193.5 163.714h17.857v89.286h-17.857z" fill="#e8f1fd"/><path d="m184.571 181.571h35.714v17.857h-35.714z" fill="#515888"/><path d="m238.143 163.714h17.857v89.286h-17.857z" fill="#e8f1fd"/><path d="m318.5 235.143h17.857v17.857h-17.857z" fill="#394071"/><path d="m282.786 235.143h17.857v17.857h-17.857z" fill="#394071"/><path d="m354.214 235.143h17.857v17.857h-17.857z" fill="#394071"/><path d="m372.071 217.286h-89.286v-53.571h89.286z" fill="#394071"/><path d="m229.214 217.286h35.714v17.857h-35.714z" fill="#515888"/><path d="m256 217.286h8.929v17.857h-8.929z" fill="#394071"/></g></g></svg>